<svg width="24" height="24" viewBox="0 0 24 24" fill="none" xmlns="http://www.w3.org/2000/svg">
<path d="M11.9998 2C6.4771 2 2 6.4771 2 11.9998C2 16.6893 5.22875 20.6245 9.58425 21.7052V15.0557H7.5223V11.9998H9.58425V10.6831C9.58425 7.2795 11.1246 5.70195 14.4662 5.70195C15.0998 5.70195 16.1929 5.8263 16.6401 5.9503V8.72025C16.4041 8.69545 15.9941 8.68305 15.485 8.68305C13.8454 8.68305 13.2118 9.30425 13.2118 10.919V11.9998H16.4781L15.9169 15.0557H13.2118V21.9264C18.1632 21.3284 22 17.1125 22 11.9998C21.9996 6.4771 17.5225 2 11.9998 2Z" fill="#475467"/>
</svg>
