<svg width="24" height="24" viewBox="0 0 24 24" fill="none" xmlns="http://www.w3.org/2000/svg">
<path d="M12.002 3.80114C14.6744 3.80114 14.9908 3.81286 16.0418 3.85974C17.0185 3.90271 17.546 4.06681 17.8976 4.20356C18.3625 4.38328 18.6986 4.60207 19.0463 4.94979C19.398 5.30145 19.6128 5.6335 19.7925 6.09845C19.9293 6.4501 20.0934 6.98145 20.1364 7.9543C20.1833 9.0092 20.195 9.32565 20.195 11.9942C20.195 14.6665 20.1833 14.983 20.1364 16.034C20.0934 17.0108 19.9293 17.5382 19.7925 17.8898C19.6128 18.3547 19.394 18.6908 19.0463 19.0385C18.6947 19.3901 18.3625 19.605 17.8976 19.7847C17.546 19.9214 17.0146 20.0856 16.0418 20.1285C14.9869 20.1754 14.6705 20.1871 12.002 20.1871C9.32955 20.1871 9.0131 20.1754 7.9621 20.1285C6.98535 20.0856 6.4579 19.9214 6.10625 19.7847C5.64135 19.605 5.30535 19.3862 4.95761 19.0385C4.60598 18.6868 4.39109 18.3547 4.21137 17.8898C4.07463 17.5382 3.91053 17.0069 3.86755 16.034C3.82067 14.9791 3.80894 14.6627 3.80894 11.9942C3.80894 9.32175 3.82067 9.00525 3.86755 7.9543C3.91053 6.97755 4.07463 6.4501 4.21137 6.09845C4.39109 5.6335 4.60989 5.2975 4.95761 4.94979C5.30925 4.59816 5.64135 4.38328 6.10625 4.20356C6.4579 4.06681 6.98925 3.90271 7.9621 3.85974C9.0131 3.81286 9.32955 3.80114 12.002 3.80114ZM12.002 2C9.2866 2 8.94665 2.01172 7.88005 2.0586C6.81735 2.10549 6.08675 2.2774 5.4538 2.52354C4.79352 2.78141 4.23481 3.12132 3.68002 3.68002C3.12132 4.23481 2.78141 4.79352 2.52354 5.4499C2.2774 6.08675 2.10549 6.81345 2.0586 7.87615C2.01172 8.94665 2 9.2866 2 12.002C2 14.7174 2.01172 15.0573 2.0586 16.1238C2.10549 17.1866 2.2774 17.9172 2.52354 18.5501C2.78141 19.2104 3.12132 19.7691 3.68002 20.3239C4.23481 20.8787 4.79352 21.2225 5.4499 21.4764C6.08675 21.7226 6.81345 21.8945 7.87615 21.9414C8.94275 21.9883 9.28265 22 11.998 22C14.7134 22 15.0533 21.9883 16.1199 21.9414C17.1826 21.8945 17.9132 21.7226 18.5462 21.4764C19.2026 21.2225 19.7613 20.8787 20.3161 20.3239C20.8708 19.7691 21.2147 19.2104 21.4687 18.554C21.7148 17.9172 21.8867 17.1905 21.9336 16.1278C21.9804 15.0612 21.9922 14.7212 21.9922 12.0058C21.9922 9.2905 21.9804 8.9506 21.9336 7.88395C21.8867 6.82125 21.7148 6.09065 21.4687 5.4577C21.2225 4.79351 20.8826 4.23481 20.3239 3.68002C19.7691 3.12522 19.2104 2.78141 18.554 2.52745C17.9172 2.28131 17.1905 2.1094 16.1278 2.06251C15.0573 2.01172 14.7174 2 12.002 2Z" fill="#475467"/>
<path d="M12.001 6.86328C9.16448 6.86328 6.86328 9.16448 6.86328 12.001C6.86328 14.8375 9.16448 17.1387 12.001 17.1387C14.8375 17.1387 17.1387 14.8375 17.1387 12.001C17.1387 9.16448 14.8375 6.86328 12.001 6.86328ZM12.001 15.3337C10.1608 15.3337 8.66828 13.8412 8.66828 12.001C8.66828 10.1608 10.1608 8.66828 12.001 8.66828C13.8412 8.66828 15.3337 10.1608 15.3337 12.001C15.3337 13.8412 13.8412 15.3337 12.001 15.3337Z" fill="#475467"/>
<path d="M18.5434 6.66039C18.5434 7.32459 18.0042 7.85984 17.344 7.85984C16.6798 7.85984 16.1445 7.32069 16.1445 6.66039C16.1445 5.99619 16.6837 5.46094 17.344 5.46094C18.0042 5.46094 18.5434 6.00009 18.5434 6.66039Z" fill="#475467"/>
</svg>
