<svg width="165" height="43" viewBox="0 0 165 43" fill="none" xmlns="http://www.w3.org/2000/svg">
<path d="M68.0187 37.7043C64.5873 37.7043 61.9083 36.7586 59.9797 34.8673C58.0512 32.976 57.0869 30.5387 57.0869 27.5574V26.7931C57.0869 23.6967 58.0235 21.162 59.8946 19.1868C61.7657 17.2116 64.3398 16.2309 67.6148 16.2445C70.7056 16.2445 73.0777 17.0946 74.729 18.7949C76.3804 20.4951 77.206 22.7862 77.206 25.6641V28.5499H63.4884L63.425 28.6649C63.524 30.0785 64.0032 31.225 64.8605 32.1044C65.7179 32.9838 66.991 33.4225 68.678 33.4225C70.068 33.4225 71.2481 33.2957 72.2183 33.0403C73.1885 32.7849 74.1924 32.3969 75.228 31.8743L76.9071 35.3138C75.9844 35.9884 74.7369 36.5558 73.1648 37.014C71.5907 37.4722 69.876 37.7023 68.0187 37.7023V37.7043ZM67.6148 20.5439C66.3673 20.5439 65.407 20.9299 64.7338 21.7001C64.0606 22.4703 63.6527 23.494 63.5101 24.7672L63.5517 24.8627H71.1234V24.4416C71.1234 23.2307 70.8462 22.2792 70.2937 21.5851C69.7413 20.891 68.8483 20.5439 67.6148 20.5439Z" fill="url(#paint0_linear_1256_33)"/>
<path d="M88.5674 23.201H88.6941L92.2245 16.6282H99.2417L92.3096 26.8511L99.4773 37.3041H92.4799L88.7159 30.4446L84.9518 37.3041H77.9346L85.1023 26.8511L78.1484 16.6282H85.1241L88.5693 23.201H88.5674Z" fill="url(#paint1_linear_1256_33)"/>
<path d="M108.175 33.0242H119.574V37.3041H100.455V34.0167L111.407 20.947H100.794V16.6282H119.21V19.82L108.173 33.0242H108.175Z" fill="url(#paint2_linear_1256_33)"/>
<path d="M136.138 37.3025C135.91 36.8306 135.716 36.3354 135.554 35.8128C135.391 35.2903 135.274 34.756 135.203 34.2081C134.566 35.2142 133.722 36.0487 132.673 36.7117C131.623 37.3746 130.376 37.7061 128.93 37.7061C126.521 37.7061 124.663 37.1484 123.359 36.0331C122.054 34.9178 121.402 33.3989 121.402 31.4764C121.402 29.4505 122.272 27.8809 124.008 26.7656C125.745 25.6503 128.279 25.0927 131.611 25.0927H135.1V23.449C135.1 22.4546 134.809 21.6844 134.229 21.1365C133.647 20.5886 132.784 20.3156 131.635 20.3156C130.627 20.3156 129.851 20.5359 129.307 20.9747C128.76 21.4134 128.487 22.0159 128.487 22.7802H122.511L122.47 22.6652C122.371 20.9201 123.218 19.4128 125.012 18.1455C126.806 16.8781 129.148 16.2444 132.041 16.2444C134.934 16.2444 137.043 16.8683 138.751 18.1162C140.46 19.3641 141.314 21.154 141.314 23.486V32.0282C141.314 32.9973 141.395 33.9078 141.559 34.7599C141.721 35.6139 141.981 36.4601 142.335 37.3005H136.146L136.138 37.3025ZM130.459 33.5764C131.536 33.5764 132.5 33.3346 133.352 32.851C134.203 32.3675 134.783 31.8059 135.096 31.1703V28.2455H131.607C130.289 28.2455 129.293 28.538 128.62 29.1249C127.946 29.7118 127.61 30.4313 127.61 31.2834C127.61 31.9834 127.861 32.541 128.364 32.9544C128.867 33.3677 129.566 33.5764 130.459 33.5764Z" fill="url(#paint3_linear_1256_33)"/>
<path d="M150.724 16.6265L151.001 19.5883C151.768 18.5315 152.71 17.7087 153.831 17.1238C154.951 16.5388 156.205 16.2444 157.595 16.2444C159.919 16.2444 161.735 16.9171 163.04 18.2605C164.345 19.6039 164.996 21.7292 164.996 24.6325V37.3025H158.765V24.652C158.765 23.1741 158.478 22.127 157.904 21.5089C157.329 20.8908 156.468 20.5827 155.32 20.5827C154.397 20.5827 153.587 20.7387 152.884 21.0507C152.183 21.3627 151.605 21.7936 151.152 22.3415V37.3044H144.942V16.6285H150.726L150.724 16.6265Z" fill="url(#paint4_linear_1256_33)"/>
<path d="M1.58239 35.7226C1.42596 35.5447 1.13688 35.5134 0.934915 35.6503L0.178542 36.1646C-0.0234218 36.3015 -0.0590624 36.5557 0.0973603 36.7337C0.174582 36.8217 0.287444 36.8745 0.404266 36.8882C0.521088 36.9019 0.64385 36.8745 0.744831 36.8061L1.5012 36.2917C1.70317 36.1548 1.73881 35.9006 1.58239 35.7226Z" fill="#2980FF"/>
<path d="M16.5345 39.8468L15.7782 40.3611C15.5762 40.498 15.5405 40.7523 15.697 40.9302C15.7742 41.0182 15.8871 41.0711 16.0039 41.0847C16.1207 41.0984 16.2435 41.0711 16.3444 41.0026L17.0988 40.4883C17.3008 40.3514 17.3364 40.0971 17.18 39.9192C17.0236 39.7412 16.7345 39.7099 16.5325 39.8468H16.5345Z" fill="#2980FF"/>
<path d="M10.3712 36.8624L9.34749 37.5606C9.14552 37.6975 9.10988 37.9517 9.26631 38.1297C9.34353 38.2177 9.45639 38.2705 9.57321 38.2842C9.69003 38.2979 9.8128 38.2705 9.91378 38.2021L10.9375 37.5058C11.1394 37.3689 11.1751 37.1147 11.0186 36.9367C10.8622 36.7588 10.5731 36.7275 10.3712 36.8644V36.8624Z" fill="#2980FF"/>
<path d="M16.2256 37.0013C16.3424 37.015 16.4651 36.9876 16.5661 36.9191L17.6155 36.2053C17.8175 36.0684 17.8531 35.8142 17.6967 35.6362C17.5403 35.4582 17.2512 35.4269 17.0492 35.5638L15.9998 36.2777C15.7979 36.4146 15.7622 36.6688 15.9186 36.8468C15.9959 36.9348 16.1087 36.9876 16.2256 37.0013Z" fill="#2980FF"/>
<path d="M48.8563 9.04467C47.205 9.04467 45.5992 9.4671 44.2151 10.2494C41.6391 5.73176 36.4079 2.8667 30.5846 2.8667C24.7613 2.8667 19.6924 5.66331 17.0728 10.0499C16.5917 10.003 16.1026 9.97753 15.6096 9.97753C8.40621 9.97753 2.54334 15.1249 2.54334 21.4534C2.54334 25.31 4.71939 28.7285 8.05179 30.8094L2.12951 34.842C1.92755 34.9789 1.8919 35.2331 2.04833 35.4111C2.12555 35.4991 2.23841 35.5519 2.35523 35.5656C2.47205 35.5792 2.59482 35.5519 2.6958 35.4834L8.86756 31.2807C9.70908 31.7285 10.612 32.0942 11.5624 32.3661L1.49788 39.2188C1.29591 39.3556 1.26027 39.6099 1.4167 39.7859C1.49392 39.8759 1.60678 39.9267 1.7236 39.9404C1.84042 39.9521 1.96319 39.9267 2.06417 39.8583L12.6712 32.636C12.9385 32.6888 13.2058 32.7376 13.4771 32.7768C13.9107 32.8413 14.3542 32.8863 14.8037 32.9078H16.1798L11.7644 35.9137C11.5624 36.0506 11.5267 36.3048 11.6832 36.4828C11.7604 36.5708 11.8733 36.6236 11.9901 36.6373C12.1069 36.651 12.2297 36.6236 12.3306 36.5551L17.6886 32.9078H20.9596L18.1302 34.8341C17.9282 34.971 17.8926 35.2253 18.049 35.4032C18.1262 35.4912 18.2391 35.544 18.3559 35.5577C18.4727 35.5714 18.5955 35.544 18.6964 35.4756L22.4664 32.9078H23.0802V34.2553L23.9059 34.7109L17.5203 39.0584C17.3183 39.1953 17.2827 39.4495 17.4391 39.6275C17.5163 39.7155 17.6292 39.7683 17.746 39.782C17.8629 39.7957 17.9856 39.7683 18.0866 39.6998L24.7395 35.1705L30.5569 38.3739V21.735L38.1701 25.5858V34.4078L45.8071 38.4111V38.4247L53.2837 34.3061V17.4306L45.8071 13.2415V29.8217L38.1701 25.5858V17.2937L30.5569 13.2181V13.2044L30.545 13.2122L30.5311 13.2044V13.2181L23.0802 17.3915V31.0069L14.6869 30.9912C14.4988 30.9775 14.3127 30.958 14.1265 30.9365C13.9978 30.9208 13.8691 30.9052 13.7404 30.8856C8.61808 30.1053 4.71147 26.1744 4.71147 21.4554C4.71147 16.177 9.60216 11.8804 15.6096 11.8804C18.5143 11.8804 21.2467 12.8739 23.304 14.6751L24.8326 13.3276C23.2367 11.9273 21.3022 10.9397 19.1895 10.4156C21.5358 6.89147 25.8761 4.67374 30.5826 4.67374C35.7346 4.67374 40.3461 7.26305 42.5182 11.3172C42.2331 11.5792 41.9698 11.855 41.7282 12.1483L43.2469 13.1203C43.8033 12.4006 44.5577 11.8198 45.4348 11.4208C46.4724 10.8908 47.6465 10.6053 48.8543 10.6053C52.2778 10.6053 55.1746 12.8328 55.7409 15.9013L57.4893 15.6529C56.7864 11.8276 53.155 9.04858 48.8543 9.04858L48.8563 9.04467Z" fill="url(#paint5_linear_1256_33)"/>
<defs>
<linearGradient id="paint0_linear_1256_33" x1="66.1357" y1="8.66362" x2="67.8312" y2="39.6492" gradientUnits="userSpaceOnUse">
<stop stop-color="#77DAFD"/>
<stop offset="0.18" stop-color="#71D3FD"/>
<stop offset="0.44" stop-color="#60BFFD"/>
<stop offset="0.74" stop-color="#45A0FE"/>
<stop offset="1" stop-color="#2980FF"/>
</linearGradient>
<linearGradient id="paint1_linear_1256_33" x1="87.5496" y1="8.56956" x2="89.251" y2="39.6643" gradientUnits="userSpaceOnUse">
<stop stop-color="#77DAFD"/>
<stop offset="0.18" stop-color="#71D3FD"/>
<stop offset="0.44" stop-color="#60BFFD"/>
<stop offset="0.74" stop-color="#45A0FE"/>
<stop offset="1" stop-color="#2980FF"/>
</linearGradient>
<linearGradient id="paint2_linear_1256_33" x1="108.795" y1="8.56566" x2="110.489" y2="39.5395" gradientUnits="userSpaceOnUse">
<stop stop-color="#77DAFD"/>
<stop offset="0.18" stop-color="#71D3FD"/>
<stop offset="0.44" stop-color="#60BFFD"/>
<stop offset="0.74" stop-color="#45A0FE"/>
<stop offset="1" stop-color="#2980FF"/>
</linearGradient>
<linearGradient id="paint3_linear_1256_33" x1="130.392" y1="8.40415" x2="132.072" y2="39.1187" gradientUnits="userSpaceOnUse">
<stop stop-color="#77DAFD"/>
<stop offset="0.18" stop-color="#71D3FD"/>
<stop offset="0.44" stop-color="#60BFFD"/>
<stop offset="0.74" stop-color="#45A0FE"/>
<stop offset="1" stop-color="#2980FF"/>
</linearGradient>
<linearGradient id="paint4_linear_1256_33" x1="153.682" y1="7.92644" x2="155.399" y2="39.3098" gradientUnits="userSpaceOnUse">
<stop stop-color="#77DAFD"/>
<stop offset="0.18" stop-color="#71D3FD"/>
<stop offset="0.44" stop-color="#60BFFD"/>
<stop offset="0.74" stop-color="#45A0FE"/>
<stop offset="1" stop-color="#2980FF"/>
</linearGradient>
<linearGradient id="paint5_linear_1256_33" x1="28.8837" y1="11.6086" x2="29.6274" y2="34.954" gradientUnits="userSpaceOnUse">
<stop stop-color="#77DAFD"/>
<stop offset="0.18" stop-color="#71D3FD"/>
<stop offset="0.44" stop-color="#60BFFD"/>
<stop offset="0.74" stop-color="#45A0FE"/>
<stop offset="1" stop-color="#2980FF"/>
</linearGradient>
</defs>
</svg>
