<svg width="24" height="24" viewBox="0 0 24 24" fill="none" xmlns="http://www.w3.org/2000/svg">
<path d="M14.5427 6.06125C14.7594 6.97975 15.5842 7.664 16.569 7.664C17.7189 7.664 18.6511 6.7318 18.6511 5.582C18.6511 4.43216 17.7189 3.5 16.569 3.5C15.5637 3.5 14.7252 4.21254 14.53 5.1603C12.8462 5.3409 11.5315 6.7689 11.5315 8.4995C11.5315 8.5034 11.5315 8.50635 11.5315 8.51025C9.70035 8.58735 8.0283 9.1086 6.70085 9.93145C6.2079 9.5498 5.58905 9.32235 4.91752 9.32235C3.30601 9.32235 2 10.6284 2 12.2399C2 13.4092 2.68717 14.4165 3.67985 14.8821C3.77648 18.2691 7.46705 20.9934 12.0069 20.9934C16.5466 20.9934 20.2421 18.2662 20.3338 14.8763C21.3187 14.4078 22 13.4034 22 12.2409C22 10.6294 20.694 9.32335 19.0825 9.32335C18.4139 9.32335 17.7979 9.5488 17.306 9.92755C15.9668 9.09885 14.2762 8.5776 12.4265 8.5083C12.4265 8.50535 12.4265 8.5034 12.4265 8.5005C12.4265 7.26085 13.348 6.23205 14.5427 6.0632V6.06125ZM6.5837 14.0915C6.6325 13.0335 7.3353 12.2213 8.15225 12.2213C8.96925 12.2213 9.59395 13.0793 9.54515 14.1374C9.49635 15.1954 8.8863 15.5801 8.06835 15.5801C7.25035 15.5801 6.5349 15.1496 6.5837 14.0915ZM15.8624 12.2213C16.6804 12.2213 17.3831 13.0335 17.431 14.0915C17.4798 15.1496 16.7633 15.5801 15.9463 15.5801C15.1293 15.5801 14.5183 15.1964 14.4695 14.1374C14.4207 13.0793 15.0444 12.2213 15.8624 12.2213ZM14.8902 16.5396C15.0434 16.5552 15.1411 16.7143 15.0815 16.8568C14.5788 18.0583 13.3919 18.9027 12.0069 18.9027C10.6217 18.9027 9.4358 18.0583 8.93215 16.8568C8.8726 16.7143 8.97025 16.5552 9.1235 16.5396C10.0215 16.4488 10.9927 16.399 12.0069 16.399C13.021 16.399 13.9912 16.4488 14.8902 16.5396Z" fill="#475467"/>
</svg>
